SplineFontDB: 3.0
FontName: KisStM
FullName: Sorts Mill Kis
FamilyName: Sorts Mill Kis
Weight: Regular
Copyright: Created by trashman with FontForge 2.0 (http://fontforge.sf.net)
UComments: "Cut 3200-dpi samples to 640 pixels high. Scale by a factor of 1.1." 
Version: 001.000
ItalicAngle: 0
UnderlinePosition: -100
UnderlineWidth: 49
Ascent: 700
Descent: 300
LayerCount: 3
Layer: 0 0 "Back"  1
Layer: 1 0 "Fore"  0
Layer: 2 0 "backup"  0
NeedsXUIDChange: 1
XUID: [1021 658 797806517 2478896]
FSType: 0
OS2Version: 0
OS2_WeightWidthSlopeOnly: 0
OS2_UseTypoMetrics: 1
CreationTime: 1263111985
ModificationTime: 1263364911
OS2TypoAscent: 0
OS2TypoAOffset: 1
OS2TypoDescent: 0
OS2TypoDOffset: 1
OS2TypoLinegap: 90
OS2WinAscent: 0
OS2WinAOffset: 1
OS2WinDescent: 0
OS2WinDOffset: 1
HheadAscent: 0
HheadAOffset: 1
HheadDescent: 0
HheadDOffset: 1
OS2Vendor: 'PfEd'
MarkAttachClasses: 1
DEI: 91125
LangName: 1033 
Encoding: UnicodeBmp
UnicodeInterp: none
NameList: Adobe Glyph List
DisplaySize: -72
AntiAlias: 1
FitToEm: 1
WinInfo: 64 8 6
BeginChars: 65536 53

StartChar: a
Encoding: 97 97 0
Width: 401
VWidth: 0
Flags: HW
HStem: -13.8 41.7998<125.559 201.286> -10.5 56.0997<279.949 357.528> 249.099 23.0999G<58.2997 80.2996> 365.698 42.8998<134.387 227.559>
VStem: 28.5999 76.9997<252.857 335.741> 34.0998 80.2996<35.2186 122.515> 241.999 74.7997<47.8253 177.597 201.934 353.525>
LayerCount: 3
Fore
SplineSet
355 12 m 0
 336 -1 313 -10 298 -10 c 0x7a
 262 -10 249 27 245 32 c 1
 245 32 183 -13 129 -13 c 0
 75 -13 34 21 34 69 c 0xb6
 34 132 112 162 179 188 c 0
 234 210 245 206 245 225 c 0
 245 328 240 367 175 367 c 0
 167 367 131 362 113 348 c 0
 108 344 106 338 106 328 c 0
 106 320 109 307 109 293 c 0
 109 274 93 249 67 249 c 0
 49 249 29 266 29 291 c 0
 29 354 162 409 225 409 c 0
 276 409 316 374 316 323 c 2
 316 105 l 2
 316 60 330 46 344 46 c 0
 352 46 356 50 359 54 c 0
 362 60 367 66 371 66 c 0
 374 66 383 62 383 54 c 0
 383 46 377 28 355 12 c 0
157 146 m 0
 136 136 114 113 114 86 c 0
 114 57 131 28 161 28 c 0xb6
 197 28 242 62 242 69 c 2
 242 166 l 2
 242 174 242 178 239 178 c 0
 222 178 165 150 157 146 c 0
EndSplineSet
EndChar

StartChar: M
Encoding: 77 77 1
Width: 912
VWidth: 0
Flags: HW
HStem: -3.29998 36.2998<34.1191 86.0562 131.458 191.685 609.054 699.348 801.937 874.986> 621.497 35.1998<82.6503 162.387 782.66 857.99>
VStem: 34.0998 94.5996<11 78.6496> 702.897 90.1996<58.3881 373.363>
LayerCount: 3
Fore
SplineSet
201 543 m 0
 197 543 190 501 171 389 c 0
 148 256 129 82 129 65 c 0
 129 49 137 37 148 34 c 0
 186 22 193 24 193 10 c 0
 193 2 190 -3 179 -3 c 0
 165 -3 128 3 109 3 c 0
 73 3 63 0 52 0 c 0
 40 0 33 7 33 14 c 0
 33 28 40 27 61 32 c 0
 75 35 89 47 91 63 c 2
 158 514 l 2
 168 580 169 581 169 586 c 0
 169 594 161 616 136 619 c 0
 96 623 83 621 83 640 c 0
 83 655 92 659 101 659 c 0
 109 659 136 656 171 656 c 0
 189 656 209 656 245 655 c 0
 262 655 268 649 275 630 c 2
 392 305 l 2
 425 214 454 139 458 139 c 0
 461 139 484 195 515 264 c 2
 646 554 l 1
 687 646 l 2
 690 653 703 652 711 652 c 2
 770 652 l 2
 802 652 833 657 843 657 c 0
 850 657 858 655 858 641 c 0
 858 629 858 623 835 621 c 0
 788 618 778 618 778 571 c 0
 778 475 793 142 793 142 c 2
 794 112 797 83 800 58 c 0
 801 47 807 32 826 27 c 0
 856 20 877 28 877 7 c 0
 877 -1 866 -3 859 -3 c 0
 836 -3 792 1 745 1 c 0
 718 1 653 -4 623 -4 c 0
 611 -4 608 3 608 8 c 0
 608 30 620 21 679 29 c 0
 701 32 703 55 703 109 c 0
 703 128 693 552 683 552 c 0
 679 552 644 476 608 398 c 2
 536 245 l 1
 485 132 l 1
 433 14 l 2
 430 6 426 3 419 3 c 2
 415 3 l 2
 404 3 397 22 387 52 c 0
 379 75 214 543 201 543 c 0
EndSplineSet
EndChar

StartChar: b
Encoding: 98 98 2
Width: 232
VWidth: 0
Flags: W
HStem: 146 80<80.393 151.607>
VStem: 76 80<150.393 221.607>
LayerCount: 3
Fore
SplineSet
76 186 m 0
 76 208 94 226 116 226 c 0
 138 226 156 208 156 186 c 0
 156 164 138 146 116 146 c 0
 94 146 76 164 76 186 c 0
EndSplineSet
Validated: 1
EndChar

StartChar: c
Encoding: 99 99 3
Width: 232
VWidth: 0
Flags: W
HStem: 146 80<80.393 151.607>
VStem: 76 80<150.393 221.607>
LayerCount: 3
Fore
SplineSet
76 186 m 4
 76 208 94 226 116 226 c 4
 138 226 156 208 156 186 c 4
 156 164 138 146 116 146 c 4
 94 146 76 164 76 186 c 4
EndSplineSet
Validated: 1
EndChar

StartChar: d
Encoding: 100 100 4
Width: 232
VWidth: 0
Flags: W
HStem: 146 80<80.393 151.607>
VStem: 76 80<150.393 221.607>
LayerCount: 3
Fore
SplineSet
76 186 m 4
 76 208 94 226 116 226 c 4
 138 226 156 208 156 186 c 4
 156 164 138 146 116 146 c 4
 94 146 76 164 76 186 c 4
EndSplineSet
Validated: 1
EndChar

StartChar: e
Encoding: 101 101 5
Width: 414
VWidth: 0
Flags: HW
HStem: 159.8 88<88.4323 166.768>
VStem: 83.6 88<164.632 242.968>
LayerCount: 3
Fore
SplineSet
217 374 m 0
 170 374 135 333 122 303 c 0
 116 290 114 282 114 277 c 0
 114 272 117 270 122 270 c 2
 278 270 l 2
 288 270 309 272 309 295 c 0
 309 316 288 374 217 374 c 0
35 192 m 0
 35 284 95 398 223 398 c 0
 330 398 382 320 382 268 c 0
 382 256 381 251 370 251 c 0
 268 251 291 249 112 249 c 0
 108 249 103 243 103 215 c 0
 103 184 115 131 144 96 c 0
 175 57 230 41 273 41 c 0
 357 41 364 108 377 108 c 0
 384 108 388 105 388 101 c 0
 388 88 368 48 327 22 c 0
 291 -1 255 -11 221 -11 c 0
 119 -11 35 79 35 192 c 0
EndSplineSet
EndChar

StartChar: f
Encoding: 102 102 6
Width: 291
VWidth: 0
Flags: HW
HStem: 160.6 88<159.432 237.768>
VStem: 154.6 88<165.432 243.768>
LayerCount: 3
Fore
SplineSet
356 594 m 0
 309 594 284 644 250 644 c 0
 191 644 168 557 168 477 c 0
 168 453 168 432 169 411 c 0
 170 398 179 398 190 398 c 2
 270 398 l 2
 277 398 280 391 280 383 c 0
 280 372 278 358 268 358 c 0
 250 358 226 359 208 359 c 0
 187 359 167 359 167 354 c 0
 165 250 165 187 165 144 c 0
 165 109 165 87 167 64 c 0
 168 48 178 26 203 24 c 0
 220 23 236 23 236 12 c 0
 236 4 234 -4 224 -4 c 0
 179 -4 138 3 103 3 c 0
 72 3 74 0 35 -2 c 0
 31 -2 18 -1 18 9 c 0
 18 19 34 21 39 22 c 0
 73 27 90 30 91 66 c 0
 94 168 96 251 96 302 c 0
 96 353 95 356 87 356 c 2
 50 356 l 2
 44 356 37 358 37 364 c 0
 37 381 81 388 87 407 c 0
 108 473 113 582 181 642 c 0
 211 669 248 689 307 689 c 0
 347 689 397 676 397 639 c 0
 397 611 378 594 356 594 c 0
EndSplineSet
EndChar

StartChar: g
Encoding: 103 103 7
Width: 430
VWidth: 0
Flags: HW
HStem: 146 80<296.393 367.607>
VStem: 292 80<150.393 221.607>
LayerCount: 3
Fore
SplineSet
413 337 m 0
 381 337 364 362 348 362 c 0
 337 362 328 353 323 349 c 1
 323 349 361 313 361 239 c 0
 361 142 290 91 200 91 c 0
 183 91 165 93 147 96 c 0
 132 99 123 102 123 102 c 1
 123 102 88 86 88 34 c 0
 88 22 90 -5 151 -5 c 2
 238 -5 l 2
 296 -5 397 -11 397 -107 c 0
 397 -224 259 -292 140 -292 c 0
 73 -292 11 -264 11 -200 c 0
 11 -132 91 -66 91 -66 c 1
 91 -66 31 -60 31 -12 c 0
 31 21 47 50 64 72 c 0
 82 95 102 109 102 109 c 1
 102 109 32 137 32 242 c 0
 32 323 109 399 203 399 c 0
 262 399 305 365 305 365 c 1
 306 366 347 400 389 400 c 0
 412 400 436 387 436 364 c 0
 436 348 426 337 413 337 c 0
118 -68 m 2
 117 -68 67 -108 67 -155 c 0
 67 -211 142 -235 200 -235 c 0
 262 -235 350 -201 350 -140 c 0
 350 -86 258 -73 154 -70 c 0
 149 -70 118 -68 118 -68 c 2
198 374 m 0
 156 374 100 337 100 244 c 0
 100 151 154 110 199 110 c 0
 248 110 290 164 290 250 c 0
 290 307 259 374 198 374 c 0
EndSplineSet
EndChar

StartChar: h
Encoding: 104 104 8
Width: 232
VWidth: 0
Flags: W
HStem: 146 80<80.393 151.607>
VStem: 76 80<150.393 221.607>
LayerCount: 3
Fore
SplineSet
76 186 m 4
 76 208 94 226 116 226 c 4
 138 226 156 208 156 186 c 4
 156 164 138 146 116 146 c 4
 94 146 76 164 76 186 c 4
EndSplineSet
Validated: 1
EndChar

StartChar: i
Encoding: 105 105 9
Width: 258
VWidth: 0
Flags: HW
HStem: 146 80<80.393 151.607>
VStem: 76 80<150.393 221.607>
LayerCount: 3
Fore
SplineSet
52 26 m 0
 78 31 89 44 90 60 c 0
 92 91 92 135 92 190 c 2
 92 313 l 2
 92 320 91 328 82 334 c 0
 57 350 43 355 43 364 c 0
 43 374 105 393 141 410 c 0
 146 412 154 413 155 413 c 0
 165 413 168 405 168 393 c 0
 168 363 165 304 165 95 c 0
 165 80 167 64 168 48 c 0
 171 12 221 31 221 7 c 0
 221 -2 214 -4 207 -4 c 0
 195 -4 149 3 121 3 c 0
 74 3 42 -2 34 -2 c 0
 27 -2 23 1 23 10 c 0
 23 23 27 21 52 26 c 0
128 668 m 0
 161 668 177 644 177 621 c 0
 177 598 161 576 132 576 c 0
 102 576 82 599 82 624 c 0
 82 644 96 668 128 668 c 0
EndSplineSet
EndChar

StartChar: j
Encoding: 106 106 10
Width: 258
VWidth: 0
Flags: HW
HStem: 146 80<80.393 151.607>
VStem: 76 80<150.393 221.607>
LayerCount: 3
Fore
SplineSet
112 212 m 2
 112 263 111 292 110 310 c 0
 108 332 98 334 83 338 c 0
 67 342 58 344 52 345 c 0
 42 347 39 359 52 366 c 0
 58 369 98 386 110 390 c 0
 139 401 156 415 168 415 c 0
 178 415 182 408 182 399 c 0
 182 369 183 304 183 95 c 2
 183 -20 l 2
 183 -38 183 -56 180 -73 c 0
 164 -159 123 -215 100 -237 c 0
 84 -253 53 -285 39 -285 c 0
 32 -285 22 -275 22 -267 c 0
 22 -264 23 -262 25 -260 c 0
 47 -241 50 -242 69 -218 c 0
 87 -195 99 -153 101 -141 c 0
 111 -69 112 44 112 135 c 2
 112 212 l 2
66 615 m 0
 66 646 92 663 117 663 c 0
 149 663 163 642 163 620 c 0
 163 596 146 570 114 570 c 0
 89 570 66 589 66 615 c 0
EndSplineSet
EndChar

StartChar: k
Encoding: 107 107 11
Width: 506
VWidth: 0
Flags: HW
HStem: 146 80<80.393 151.607>
VStem: 76 80<150.393 221.607>
LayerCount: 3
Fore
SplineSet
440 396 m 0
 449 396 452 394 452 388 c 2
 452 385 l 2
 452 372 413 377 387 356 c 0
 319 299 270 222 270 222 c 1
 270 222 353 106 417 29 c 0
 421 24 433 21 445 19 c 2
 457 17 l 2
 469 15 472 12 472 5 c 0
 472 0 471 -5 463 -5 c 0
 445 -5 366 0 351 0 c 0
 317 0 290 -3 282 -3 c 0
 277 -3 275 1 275 6 c 0
 275 9 276 12 278 14 c 0
 280 16 317 16 317 25 c 0
 317 36 229 147 216 164 c 0
 212 169 207 170 198 170 c 2
 178 169 l 2
 163 168 162 169 162 132 c 2
 162 67 l 2
 162 47 164 23 180 20 c 2
 204 16 l 2
 214 15 214 10 214 6 c 0
 214 -2 208 -2 200 -2 c 0
 177 -2 136 3 122 3 c 0
 83 3 48 -3 42 -3 c 0
 32 -3 29 3 29 8 c 0
 29 12 31 16 35 17 c 0
 73 22 80 18 82 31 c 0
 85 49 88 112 88 151 c 2
 88 446 l 2
 88 490 86 530 83 586 c 0
 82 597 78 601 67 604 c 0
 29 614 22 612 22 624 c 0
 22 637 31 632 92 648 c 0
 109 652 138 664 150 664 c 0
 159 664 162 652 162 642 c 0
 161 620 161 599 161 579 c 0
 160 382 160 301 160 257 c 0
 160 228 160 215 162 196 c 0
 162 189 171 190 178 190 c 0
 200 190 205 192 211 198 c 0
 228 214 237 224 251 241 c 2
 299 302 l 2
 317 325 323 340 323 352 c 0
 323 374 297 372 280 375 c 0
 269 377 268 379 268 384 c 0
 268 391 270 392 285 392 c 0
 392 392 424 396 440 396 c 0
EndSplineSet
EndChar

StartChar: l
Encoding: 108 108 12
Width: 274
VWidth: 0
Flags: HW
HStem: 146 80<115.393 186.607>
VStem: 111 80<150.393 221.607>
LayerCount: 3
Fore
SplineSet
68 649 m 0
 122 652 167 662 171 662 c 0
 181 662 183 649 183 639 c 16
 183 611 182 606 182 592 c 0
 180 463 179 374 179 278 c 0
 179 217 180 164 181 64 c 0
 181 41 182 31 193 27 c 0
 224 15 241 20 241 8 c 0
 241 -1 240 -4 230 -4 c 0
 214 -4 169 2 142 2 c 0
 117 2 76 -2 56 -2 c 0
 45 -2 41 0 41 8 c 0
 41 16 46 17 62 21 c 0
 104 31 105 38 105 71 c 0
 105 189 106 168 106 233 c 0
 106 442 104 511 104 581 c 0
 104 612 99 613 60 628 c 0
 55 630 52 633 52 638 c 0
 52 648 57 648 68 649 c 0
EndSplineSet
EndChar

StartChar: m
Encoding: 109 109 13
Width: 232
VWidth: 0
Flags: W
HStem: 146 80<80.393 151.607>
VStem: 76 80<150.393 221.607>
LayerCount: 3
Fore
SplineSet
76 186 m 4
 76 208 94 226 116 226 c 4
 138 226 156 208 156 186 c 4
 156 164 138 146 116 146 c 4
 94 146 76 164 76 186 c 4
EndSplineSet
Validated: 1
EndChar

StartChar: n
Encoding: 110 110 14
Width: 232
VWidth: 0
Flags: W
HStem: 146 80<80.393 151.607>
VStem: 76 80<150.393 221.607>
LayerCount: 3
Fore
SplineSet
76 186 m 4
 76 208 94 226 116 226 c 4
 138 226 156 208 156 186 c 4
 156 164 138 146 116 146 c 4
 94 146 76 164 76 186 c 4
EndSplineSet
Validated: 1
EndChar

StartChar: o
Encoding: 111 111 15
Width: 232
VWidth: 0
Flags: W
HStem: 146 80<80.393 151.607>
VStem: 76 80<150.393 221.607>
LayerCount: 3
Fore
SplineSet
76 186 m 4
 76 208 94 226 116 226 c 4
 138 226 156 208 156 186 c 4
 156 164 138 146 116 146 c 4
 94 146 76 164 76 186 c 4
EndSplineSet
Validated: 1
EndChar

StartChar: p
Encoding: 112 112 16
Width: 232
VWidth: 0
Flags: W
HStem: 146 80<80.393 151.607>
VStem: 76 80<150.393 221.607>
LayerCount: 3
Fore
SplineSet
76 186 m 4
 76 208 94 226 116 226 c 4
 138 226 156 208 156 186 c 4
 156 164 138 146 116 146 c 4
 94 146 76 164 76 186 c 4
EndSplineSet
Validated: 1
EndChar

StartChar: q
Encoding: 113 113 17
Width: 232
VWidth: 0
Flags: W
HStem: 146 80<80.393 151.607>
VStem: 76 80<150.393 221.607>
LayerCount: 3
Fore
SplineSet
76 186 m 4
 76 208 94 226 116 226 c 4
 138 226 156 208 156 186 c 4
 156 164 138 146 116 146 c 4
 94 146 76 164 76 186 c 4
EndSplineSet
Validated: 1
EndChar

StartChar: r
Encoding: 114 114 18
Width: 374
VWidth: 0
Flags: HW
HStem: 146 80<223.393 294.607>
VStem: 219 80<150.393 221.607>
LayerCount: 3
Fore
SplineSet
30 9 m 2
 30 26 61 10 85 29 c 0
 101 41 103 42 103 199 c 0
 103 233 105 244 105 311 c 0
 105 348 78 344 59 362 c 0
 54 366 56 376 62 378 c 0
 83 385 94 385 116 392 c 0
 143 400 161 412 170 412 c 0
 174 412 179 407 179 402 c 0
 178 384 177 341 177 341 c 1
 177 341 235 409 289 409 c 0
 318 409 346 388 346 360 c 0
 346 337 333 314 309 314 c 0
 288 314 276 326 266 337 c 0
 263 341 257 351 243 351 c 0
 215 351 176 309 176 289 c 2
 176 62 l 2
 176 13 230 21 253 17 c 0
 258 16 260 13 260 9 c 0
 260 2 258 -6 250 -6 c 0
 236 -6 176 3 134 3 c 0
 102 3 54 -2 47 -2 c 0
 35 -2 30 0 30 4 c 2
 30 9 l 2
EndSplineSet
EndChar

StartChar: s
Encoding: 115 115 19
Width: 340
VWidth: 0
Flags: HW
HStem: 144 80<166.393 237.607>
VStem: 162 80<148.393 219.607>
LayerCount: 3
Fore
SplineSet
34 126 m 0
 34 141.8 40 142 49 142 c 0
 57 142 60 138 63 128 c 0
 71 105 85 71 104 50 c 0
 126 27 152 16 181 16 c 0
 220 16 240 54 240 86 c 0
 240 172 47 173 47 303 c 0
 47 371 93 412 170 412 c 0
 183 412 198 411 213 408 c 0
 232 405 244 401 245 401 c 0
 248 401 267 405 272 405 c 0
 279 405 281 399 281 391 c 0
 281 380 282 372 282 357 c 0
 282 337 284 303 284 298 c 0
 284 284 273 282 267 290 c 0
 253 308 229 387 161 387 c 0
 130 387 104 367 104 326 c 0
 104 229 294 245 294 110 c 0
 294 22 230 -10 181 -10 c 0
 139 -10 122 0 87 0 c 0
 77 0 63 -7 55 -7 c 0
 40 -7 40 5 40 10 c 0
 40 42 41 40 41 68 c 0
 41 80 34 114 34 126 c 0
EndSplineSet
EndChar

StartChar: t
Encoding: 116 116 20
Width: 318
VWidth: 0
Flags: HW
HStem: 146 80<80.393 151.607>
VStem: 76 80<150.393 221.607>
LayerCount: 3
Fore
SplineSet
150 409 m 2
 150 396 155 394 175 394 c 2
 269 394 l 2
 286 394 292 392 292 373 c 0
 292 353 290 346 268 346 c 2
 171 346 l 2
 160 346 152 345 151 330 c 0
 147 286 147 258 147 215 c 2
 147 114 l 2
 147 54 174 28 221 28 c 0
 250 28 260 31 277 35 c 0
 285 37 288 25 283 22 c 0
 269 14 218 -13 177 -13 c 0
 87 -13 74 55 74 130 c 0
 74 166 76 204 76 237 c 2
 76 329 l 2
 76 341 71 342 61 342 c 2
 52 342 l 2
 30 342 26 349 26 358 c 0
 26 362 28 366 31 369 c 0
 71 400 107 445 127 461 c 0
 133 466 136 466 140 466 c 0
 148 466 150 447 150 436 c 2
 150 409 l 2
EndSplineSet
EndChar

StartChar: u
Encoding: 117 117 21
Width: 232
VWidth: 0
Flags: W
HStem: 146 80<80.393 151.607>
VStem: 76 80<150.393 221.607>
LayerCount: 3
Fore
SplineSet
76 186 m 4
 76 208 94 226 116 226 c 4
 138 226 156 208 156 186 c 4
 156 164 138 146 116 146 c 4
 94 146 76 164 76 186 c 4
EndSplineSet
Validated: 1
EndChar

StartChar: v
Encoding: 118 118 22
Width: 232
VWidth: 0
Flags: W
HStem: 146 80<80.393 151.607>
VStem: 76 80<150.393 221.607>
LayerCount: 3
Fore
SplineSet
76 186 m 4
 76 208 94 226 116 226 c 4
 138 226 156 208 156 186 c 4
 156 164 138 146 116 146 c 4
 94 146 76 164 76 186 c 4
EndSplineSet
Validated: 1
EndChar

StartChar: w
Encoding: 119 119 23
Width: 232
VWidth: 0
Flags: W
HStem: 146 80<80.393 151.607>
VStem: 76 80<150.393 221.607>
LayerCount: 3
Fore
SplineSet
76 186 m 0
 76 208 94 226 116 226 c 0
 138 226 156 208 156 186 c 0
 156 164 138 146 116 146 c 0
 94 146 76 164 76 186 c 0
EndSplineSet
Validated: 1
EndChar

StartChar: x
Encoding: 120 120 24
Width: 232
VWidth: 0
Flags: W
HStem: 146 80<80.393 151.607>
VStem: 76 80<150.393 221.607>
LayerCount: 3
Fore
SplineSet
76 186 m 4
 76 208 94 226 116 226 c 4
 138 226 156 208 156 186 c 4
 156 164 138 146 116 146 c 4
 94 146 76 164 76 186 c 4
EndSplineSet
Validated: 1
EndChar

StartChar: y
Encoding: 121 121 25
Width: 232
VWidth: 0
Flags: W
HStem: 146 80<80.393 151.607>
VStem: 76 80<150.393 221.607>
LayerCount: 3
Fore
SplineSet
76 186 m 4
 76 208 94 226 116 226 c 4
 138 226 156 208 156 186 c 4
 156 164 138 146 116 146 c 4
 94 146 76 164 76 186 c 4
EndSplineSet
Validated: 1
EndChar

StartChar: z
Encoding: 122 122 26
Width: 232
VWidth: 0
Flags: W
HStem: 146 80<80.393 151.607>
VStem: 76 80<150.393 221.607>
LayerCount: 3
Fore
SplineSet
76 186 m 4
 76 208 94 226 116 226 c 4
 138 226 156 208 156 186 c 4
 156 164 138 146 116 146 c 4
 94 146 76 164 76 186 c 4
EndSplineSet
Validated: 1
EndChar

StartChar: H
Encoding: 72 72 34
Width: 818
VWidth: 0
Flags: HW
HStem: 146 80<80.393 151.607>
VStem: 76 80<150.393 221.607>
LayerCount: 3
Fore
SplineSet
700 546 m 0
 700 453 697 220 697 80 c 0
 697 53 699 47 712 32 c 0
 720 23 724 22 755 20 c 0
 771 19 778 18 778 8 c 0
 778 -2 772 -5 760 -5 c 0
 744 -5 677 0 654 0 c 0
 605 0 522 -8 512 -8 c 0
 501 -8 498 3 498 10 c 0
 498 23 506 22 510 23 c 0
 517 24 552 27 557 28 c 0
 593 32 596 40 598 64 c 0
 600 84 600 110 600 149 c 2
 600 292 l 2
 600 307 598 310 576 310 c 2
 241 310 l 2
 222 310 221 309 221 285 c 0
 221 198 220 184 220 140 c 0
 220 37 225 40 253 31 c 0
 260 28 274 27 321 25 c 0
 336 25 337 17 337 13 c 0
 337 6 334 -5 327 -5 c 0
 293 -5 241 3 174 3 c 0
 126 3 75 -5 49 -5 c 0
 37 -5 33 2 33 9 c 0
 33 24 43 21 72 25 c 0
 121 32 115 49 117 136 c 0
 119 203 120 325 122 552 c 0
 122 609 110 613 56 624 c 0
 46 626 42 630 42 635 c 0
 42 642 45 648 50 648 c 0
 88 648 104 643 180 643 c 0
 238 643 315 651 326 651 c 0
 332 651 334 646 334 641 c 0
 334 636 332 631 328 630 c 0
 267 621 224 625 224 584 c 0
 224 539 222 378 222 355 c 0
 222 342 225 341 250 341 c 2
 583 341 l 2
 598 341 603 341 603 360 c 2
 601 562 l 2
 600 614 588 620 522 623 c 0
 511 623 506 629 506 634 c 0
 506 639 510 644 516 644 c 0
 545 644 636 639 649 639 c 0
 707 639 732 641 780 643 c 0
 782 643 784 637 784 633 c 0
 784 630 783 628 782 628 c 0
 731 615 700 627 700 546 c 0
EndSplineSet
EndChar

StartChar: I
Encoding: 73 73 35
Width: 332
VWidth: 0
Flags: HW
HStem: 146 80<80.393 151.607>
VStem: 76 80<150.393 221.607>
LayerCount: 3
Fore
SplineSet
109 149 m 2
 109 528 l 2
 109 590 105 612 52 612 c 2
 43 612 l 2
 36 612 30 613 27 619 c 0
 26 622 25 624 25 627 c 0
 25 635 30 643 39 643 c 0
 68 643 109 635 154 635 c 18
 166 635 l 2
 205 635 229 639 270 639 c 0
 276 639 280 633 280 627 c 0
 280 621 277 614 272 614 c 2
 266 614 l 2
 244 614 209 612 209 576 c 0
 209 465 203 385 203 297 c 2
 203 152 l 2
 203 128 203 109 204 95 c 0
 207 29 226 30 238 26 c 0
 247 23 261 21 282 16 c 0
 285 15 288 11 288 9 c 0
 288 2 285 -5 278 -5 c 2
 277 -5 l 1
 263 -4 l 2
 225 -1 200 7 159 7 c 0
 111 7 79 -5 53 -5 c 0
 41 -5 37 2 37 9 c 0
 37 22 47 22 51 22 c 0
 54 22 71 24 76 25 c 0
 97 28 108 46 108 57 c 0
 108 91 109 119 109 149 c 2
EndSplineSet
EndChar

StartChar: J
Encoding: 74 74 36
Width: 304
VWidth: 0
Flags: HW
HStem: 146 80<80.393 151.607>
VStem: 76 80<150.393 221.607>
LayerCount: 3
Fore
SplineSet
45 618 m 2
 31 618 27 628 27 634 c 0
 27 642 32 648 41 648 c 0
 70 648 110 643 154 643 c 18
 166 643 l 2
 182 643 244 651 265 651 c 0
 271 651 275 645 275 636 c 0
 275 630 268 621 263 621 c 2
 233 618 l 2
 211 616 205 619 205 583 c 0
 205 484 204 404 204 326 c 2
 205 74 l 2
 205 -53 150 -122 80 -170 c 0
 41 -197 3 -212 -16 -212 c 0
 -62 -212 -90 -178 -90 -146 c 0
 -90 -116 -69 -87 -31 -87 c 0
 13 -87 37 -136 72 -136 c 0
 106 -136 108 -4 109 41 c 0
 110 106 111 117 111 149 c 2
 108 559 l 2
 108 605 107 618 52 618 c 2
 45 618 l 2
EndSplineSet
EndChar

StartChar: N
Encoding: 78 78 39
Width: 810
VWidth: 0
Flags: HWO
HStem: 146 80<658.393 729.607>
VStem: 654 80<150.393 221.607>
LayerCount: 3
Fore
SplineSet
670 644 m 0
 742 644 759 650 771 650 c 0
 780 650 784 645 784 636 c 0
 784 621 771 620 759 620 c 0
 716 620 693 595 691 568 c 0
 686 506 684 413 684 364 c 0
 684 292 683 227 681 155 c 0
 678 23 684 0 663 -0 c 0
 657 0 651 9 647 13 c 0
 467 213 196 515 191 515 c 0
 187 515 183 283 183 153 c 0
 183 124 184 101 184 86 c 0
 186 18 224 28 265 23 c 0
 280 21 288 22 288 8 c 0
 288 0 284 -8 273 -8 c 0
 237 -8 213 2 170 2 c 0
 138 2 87 -3 73 -3 c 0
 53 -3 50 4 50 10 c 0
 50 22 57 27 73 27 c 0
 82 27 90 28 98 28 c 0
 139 29 146 53 150 110 c 0
 155 205 157 277 157 352 c 0
 157 408 157 464 157 520 c 0
 157 542 156 553 145 566 c 0
 107 612 99 610 86 614 c 0
 77 616 55 619 46 619 c 0
 35 619 31 621 31 641 c 0
 31 649 34 656 41 656 c 0
 91 655 99 648 211 644 c 0
 218 644 229 637 271 589 c 0
 365 483 561 259 629 188 c 0
 640 176 647 168 651 168 c 0
 655 168 656 178 656 203 c 0
 656 227 658 261 658 301 c 0
 658 371 658 454 655 520 c 0
 653 570 643 594 626 606 c 0
 609 617 595 618 589 618 c 0
 576 618 570 617 558 617 c 0
 551 617 541 618 541 634 c 0
 541 647 545 650 564 650 c 0
 574 650 610 644 670 644 c 0
EndSplineSet
EndChar

StartChar: O
Encoding: 79 79 40
Width: 746
VWidth: 0
Flags: HW
HStem: 146 80<80.393 151.607>
VStem: 76 80<150.393 221.607>
LayerCount: 3
Fore
SplineSet
374 644 m 0
 217 644 147 496 147 344 c 0
 147 186 229 24 390 24 c 0
 480 24 614 78 614 340 c 0
 614 523 526 644 374 644 c 0
370 676 m 0
 558 676 712 570 712 334 c 0
 712 98 537 -6 385 -6 c 0
 194 -6 36 130 36 344 c 0
 36 512 148 676 370 676 c 0
EndSplineSet
EndChar

StartChar: T
Encoding: 84 84 45
Width: 730
VWidth: 0
Flags: HW
HStem: 146 80<574.393 645.607>
VStem: 570 80<150.393 221.607>
LayerCount: 3
Fore
SplineSet
64 664 m 0
 71 664 95 645 108 645 c 0
 203 645 271 643 345 643 c 0
 435 643 573 642 633 642 c 0
 641 642 667 662 675 662 c 0
 689 662 686 643 697 608 c 2
 716 543 l 2
 717 541 717 539 717 537 c 0
 717 532 715 528 709 528 c 0
 700 528 673 573 645 596 c 0
 629 609 619 609 598 610 c 0
 574 611 531 612 516 612 c 2
 455 612 l 2
 436 612 422 609 422 586 c 0
 422 505 418 240 418 160 c 2
 418 128 l 2
 418 96 420 70 423 54 c 0
 428 28 455 27 466 27 c 2
 504 27 l 2
 522 27 528 24 528 9 c 0
 528 -5 505 -6 504 -6 c 0
 481 -6 429 2 377 2 c 0
 346 2 260 -4 229 -4 c 0
 215 -4 213 6 213 14 c 0
 213 28 226 30 236 30 c 0
 244 30 268 29 280 29 c 0
 313 29 312 57 314 90 c 0
 316 116 317 248 317 354 c 2
 316 516 l 2
 316 612 315 612 275 612 c 2
 182 612 l 2
 115 612 116 611 91 589 c 2
 31 535 l 2
 29 533 27 533 26 533 c 0
 21 533 16 539 16 544 c 0
 16 560 51 635 56 657 c 0
 57 662 61 664 64 664 c 0
EndSplineSet
EndChar

